<svg width="400" height="400" viewBox="0 0 400 400" fill="none" xmlns="http://www.w3.org/2000/svg">
<path opacity="0.99" d="M245.473 230.083C240.449 238.784 227.891 238.784 222.867 230.083L145.161 95.492C140.137 86.7911 146.417 75.9151 156.464 75.9151L311.876 75.9151C321.923 75.9151 328.202 86.7911 323.179 95.492L245.473 230.083Z" fill="#5E6262"/>
<path opacity="0.99" d="M239.609 225.336C236.934 229.969 230.247 229.969 227.572 225.336L151.837 94.1583C149.162 89.5251 152.505 83.7336 157.855 83.7336L309.326 83.7336C314.676 83.7336 318.02 89.5251 315.345 94.1583L239.609 225.336Z" fill="#D3FBFB"/>
<path opacity="0.99" d="M154.527 170.782C159.551 162.081 172.109 162.081 177.133 170.782L254.839 305.373C259.863 314.074 253.583 324.95 243.536 324.95H88.1238C78.0769 324.95 71.7976 314.074 76.821 305.373L154.527 170.782Z" fill="#5E6262"/>
<path opacity="0.99" d="M160.391 175.529C163.066 170.896 169.753 170.896 172.428 175.529L248.163 306.707C250.838 311.34 247.495 317.131 242.145 317.131H90.6738C85.3239 317.131 81.9802 311.34 84.6551 306.707L160.391 175.529Z" fill="#D3FBFB"/>
<path opacity="0.99" d="M239.624 226.37C236.955 231.036 230.226 231.036 227.558 226.37L186.875 155.234C184.225 150.601 187.57 144.834 192.908 144.834H274.274C279.611 144.834 282.956 150.601 280.307 155.234L239.624 226.37Z" fill="#FED56C"/>
<path opacity="0.99" d="M124.469 235.885C127.138 231.219 133.866 231.219 136.535 235.885L177.218 307.021C179.868 311.654 176.522 317.421 171.185 317.421H89.8189C84.4816 317.421 81.1363 311.654 83.7861 307.021L124.469 235.885Z" fill="#FED56C"/>
<path opacity="0.99" d="M214.268 268.263C216.923 263.621 223.617 263.621 226.272 268.263L248.459 307.057C251.095 311.667 247.767 317.404 242.457 317.404H198.084C192.774 317.404 189.446 311.667 192.082 307.057L214.268 268.263Z" fill="#FED56C"/>
<path opacity="0.99" d="M180.962 288.307C182.534 285.558 186.498 285.558 188.07 288.307L201.207 311.278C202.768 314.007 200.797 317.404 197.653 317.404H171.379C168.235 317.404 166.264 314.007 167.825 311.278L180.962 288.307Z" fill="#FED56C"/>
<circle cx="267.761" cy="219.544" r="5.79151" fill="#FED56C"/>
<circle cx="263.707" cy="253.714" r="4.05405" fill="#FED56C"/>
<circle cx="253.282" cy="230.548" r="1.73745" fill="#FED56C"/>
<circle cx="215.058" cy="229.39" r="1.73745" fill="#FED56C"/>
<circle cx="213.9" cy="221.282" r="1.73745" fill="#FED56C"/>
<circle cx="240.541" cy="251.398" r="6.37066" fill="#FED56C"/>
<circle cx="197.104" cy="197.537" r="2.3166" fill="#FED56C"/>
</svg>
